# xmcd
#
# Track frame offsets:
#	150
#	18558
#	39439
#	50681
#
# Disc length: 818 seconds
#
# Revision: 1
# Processed by: cddbd v1.5.2PL0 Copyright (c) Steve Scherf et al.
# Submitted via: audiograbber 1.83.01
#
DISCID=2d033004
DTITLE=Al Dente - dal vivo
DYEAR=2000
DGENRE=Italo
TTITLE0=Gli impermeabili
TTITLE1=Azzurro
TTITLE2=Via con me
TTITLE3=Buananotte fiorellino
EXTD=
EXTT0=Paolo Conte
EXTT1=Pallavicini/Conte
EXTT2=Paolo Conte
EXTT3=De Gregori
PLAYORDER=
